<svg version="1.1" style="display: block;" viewBox="0 0 2048 2048">
<defs>
	<linearGradient id="Gradient1" gradientUnits="userSpaceOnUse" x1="1143.22" y1="1447.92" x2="1167.55" y2="1492.78">
		<stop class="stop0" offset="0" stop-opacity="1" stop-color="rgb(140,139,140)"/>
		<stop class="stop1" offset="1" stop-opacity="1" stop-color="rgb(206,205,205)"/>
	</linearGradient>
</defs>
<path transform="translate(0,0)" fill="rgb(249,249,248)" d="M -0 -0 L 2048 0 L 2048 2048 L -0 2048 L -0 -0 z"/>
<path transform="translate(0,0)" fill="rgb(0,0,0)" d="M 653.006 19.5 C 654.567 19.4309 654.228 19.4012 656.137 19.5869 C 659.751 19.9386 662.65 21.9115 665.382 24.176 C 672.132 29.7718 677.239 37.9639 681.895 45.3113 L 700.133 74.1848 L 731.852 119.161 L 910.036 353.201 C 950.004 350.501 991.635 356.21 1030.87 363.762 L 1098.17 379.257 C 1108.13 381.668 1121.82 387.662 1131.93 386.236 C 1202.67 376.257 1266.57 344.838 1325.5 305.448 C 1363.55 280.016 1397.86 252.876 1431.41 221.699 C 1451.42 203.1 1471.58 184.235 1488.83 162.985 C 1504.03 144.267 1518.87 123.065 1531.4 102.422 C 1539.04 89.8416 1545.93 74.556 1555.09 63.2629 C 1561.53 55.3253 1567.72 52.0929 1577.18 49.2259 C 1583.14 51.8149 1587.66 54.171 1591.27 59.7756 C 1594.81 65.2679 1594.86 72.0152 1594.45 78.3113 C 1593.21 97.1401 1588.63 116.366 1584.27 134.709 L 1577 132.783 L 1575.84 132.463 C 1570.46 131.108 1562.73 135.4 1558.26 138.061 C 1541.72 147.897 1528.41 165.548 1515.73 179.749 L 1464.28 238.446 C 1414.08 295.455 1360.78 349.599 1316.56 411.62 C 1302.28 431.649 1287.2 451.352 1281.19 475.595 C 1296 499.562 1325.91 511.079 1348.21 526.707 C 1358.89 534.194 1369.79 544.103 1379.28 553.12 C 1396.02 569.043 1406.79 590.053 1420.4 608.478 C 1434.34 627.361 1449.56 644.562 1462.26 664.474 L 1457.5 636.28 C 1454.57 621.81 1448.11 600.594 1453.5 586.73 C 1454.42 584.36 1454.44 585.624 1453.5 583.197 L 1447.5 586.177 L 1446.25 585 C 1446.74 574.962 1452.55 569.026 1458.21 561.27 L 1440.13 565.078 L 1461.25 550.297 L 1442.34 547.186 L 1459.21 535.423 C 1453.07 536.222 1448.35 535.446 1442.37 534.203 C 1443.06 531.908 1449.52 527.578 1451.5 525.637 C 1456.04 521.193 1460.17 515.991 1464.48 511.284 C 1459.36 513.169 1452 517.224 1446.78 517.5 L 1446.5 514.081 C 1442.02 513.558 1438.61 515.607 1434.65 517.429 C 1442.57 506.801 1450.28 495.9 1456.31 484.059 C 1445.4 496.626 1433.42 504.855 1418.51 512.289 C 1420.39 507.855 1422.26 503.747 1424.85 499.669 C 1425.78 498.201 1425.5 499.1 1425.5 497.096 L 1421 500 L 1420.21 499 L 1424.41 486.454 C 1414.74 496.698 1408.99 506.147 1402.87 518.652 C 1402.21 499.176 1413.06 486.431 1420.83 469.877 C 1410.73 479.46 1404.42 490.265 1396.98 501.798 C 1398.76 492.946 1400.65 484.835 1404.21 476.5 L 1403.5 475.143 C 1400.83 476.502 1400.52 476.906 1398.92 479.5 C 1397.96 481.059 1397.74 481.949 1396.15 482.885 C 1396.39 481.026 1396.86 479.318 1397.33 477.5 C 1393.94 477.444 1389.44 483.147 1386.85 485.57 C 1391.29 476.149 1399.89 470.32 1408.13 464.421 C 1399.04 465.061 1386.51 466.753 1378.67 471.595 C 1365.77 479.568 1357.44 498.657 1353.5 512.783 C 1352.53 516.258 1352.06 521.984 1349.5 524.348 C 1347.7 520.886 1348.01 516.171 1348.6 512.376 C 1349.79 504.706 1352.97 497.402 1356.53 490.564 C 1360.28 483.386 1364.93 475.393 1371.13 470.086 C 1377.3 464.794 1384.97 461.76 1392.46 458.841 C 1408.91 452.431 1426.42 448.169 1443.47 443.662 C 1449.82 441.984 1460.31 440.368 1465.5 436.519 C 1458.83 435.503 1449.62 438.821 1442.48 439.043 C 1430.87 439.404 1419.47 438.071 1407.9 437.381 L 1471.97 415.736 L 1427.3 418.166 C 1413.28 418.562 1398.93 418.375 1385 420.039 C 1373.72 421.386 1362.86 425.372 1351.62 427.189 C 1361.98 422.757 1372.49 417.11 1383.18 413.694 C 1406.45 406.255 1433.24 409.758 1457.5 407.561 L 1457.92 406.5 C 1432.91 404.709 1408.54 404.431 1383.92 398.712 C 1393.43 396.838 1403.19 396.998 1412.78 395.725 C 1424.6 394.158 1436.51 391.231 1448.22 388.883 C 1463.04 385.912 1477.94 383.794 1491.88 377.697 C 1465.38 368.354 1438.26 374.892 1411.1 374.473 C 1423.51 371.747 1433.86 367.386 1445.25 361.841 L 1401.76 367.071 L 1458.64 350.458 C 1448.51 348.42 1435.42 350.392 1425.35 351.835 C 1412.87 353.623 1400.3 355.353 1387.7 355.847 L 1428.5 343.166 C 1446.98 337.611 1464.82 333.515 1482.63 325.649 L 1440.98 329.495 C 1458.83 322.705 1478.92 324.533 1497.58 319.285 C 1490.25 317.834 1482.24 318.463 1474.77 317.838 C 1466.43 317.141 1458.41 314.738 1450.18 314.011 C 1442.3 313.316 1434.5 314.538 1426.73 315.71 C 1440.45 309.006 1454.98 301.57 1469.78 297.63 C 1481.81 294.43 1494.13 293.203 1506.16 289.429 C 1497.22 288.719 1480.54 296.38 1473.9 292.5 C 1481.97 290.306 1489.77 284.345 1497.43 280.692 C 1488.85 281.926 1479.21 283.669 1472.52 289.614 C 1468.81 292.904 1465.71 292.68 1461 292.657 L 1460.8 291.5 C 1465.97 290.375 1469.55 289.497 1473.5 285.842 L 1472.99 284.326 L 1452.72 286.634 C 1459.44 280.853 1466.06 279.587 1473.05 274.996 C 1476.96 272.428 1480.12 268.234 1483.11 264.669 C 1475.92 269.241 1469.95 273.154 1462.01 276.42 C 1465.79 267.117 1471.56 259.443 1477.07 251.122 L 1522.64 189.042 C 1531.82 177.242 1559.2 138.905 1573.38 137.575 C 1575.95 137.334 1578.68 138.257 1580.53 140.127 C 1594.39 154.135 1576.46 225.886 1571.67 245.574 L 1524.71 418.579 L 1500.5 513.706 C 1497.04 530.191 1493.51 546.946 1492.18 563.759 C 1490.09 590.222 1496.48 615.995 1495.98 642.229 C 1495.56 663.893 1486.43 682.53 1490.52 704.5 C 1494.98 728.474 1504.16 752.985 1516.04 774.26 C 1522.57 785.969 1532.33 798.463 1535.77 811.415 C 1539.1 823.96 1527.57 830.857 1524.93 841.289 C 1524.46 843.122 1525.04 846.51 1525.22 848.5 C 1527.37 871.708 1535.48 894.161 1541.69 916.5 C 1548.3 940.31 1552.27 963.901 1550.65 988.643 C 1549.39 1007.93 1544.35 1026.76 1535.27 1043.87 C 1527.17 1059.14 1516.72 1072.37 1505.89 1085.75 C 1496.37 1097.51 1484.11 1110.69 1479.11 1125.15 C 1477.87 1128.74 1477.96 1132.26 1478.08 1136 C 1478.5 1136.54 1478.69 1137.37 1479.32 1137.61 C 1480.64 1138.12 1494.33 1134.71 1496.63 1134.32 C 1557.3 1123.94 1624.97 1125.5 1685.5 1136.85 C 1745.56 1148.12 1807.48 1172.51 1856.29 1209.82 C 1883.56 1230.66 1907.67 1257.13 1926.85 1285.5 C 1957.77 1331.22 1968.2 1380.34 1957.99 1434.5 L 1955.76 1409.85 C 1946.3 1333.29 1896.19 1265.36 1836.29 1219.07 C 1737.18 1142.49 1601.99 1129.92 1481.35 1145.29 L 1487.42 1178.34 C 1535.54 1177.05 1581.75 1180.13 1628.54 1192.12 L 1652.18 1199.35 C 1758.55 1236.51 1852.97 1317.29 1901.69 1419.56 C 1932.22 1483.65 1939.73 1556.93 1915.84 1624.33 L 1920.47 1568.53 C 1920.4 1540.47 1917.34 1512.92 1909.55 1485.9 C 1891.2 1422.24 1849.21 1362.51 1802.64 1316.19 C 1777.66 1291.34 1748.36 1266.44 1718.4 1248.06 C 1650.16 1206.19 1567.59 1186.48 1487.98 1186.68 C 1488.02 1188.97 1487.42 1200.81 1488.25 1202.2 C 1488.87 1203.24 1490.64 1202.54 1491.84 1202.71 C 1505.71 1204.68 1519.42 1207.31 1533 1210.79 C 1622.15 1233.67 1699.33 1280.7 1764.03 1345.78 C 1793.53 1375.46 1819.58 1408.11 1839.44 1445.09 C 1848.14 1461.28 1856.13 1478.56 1860.44 1496.51 C 1865.08 1515.85 1865.9 1536.14 1865.85 1555.96 C 1859.53 1538 1855.71 1520.79 1847.09 1503.47 C 1839.98 1489.17 1831.12 1475.36 1822.78 1461.72 C 1812.91 1445.58 1803.11 1429.19 1791.94 1413.91 C 1777.89 1394.7 1761.98 1377.08 1745.63 1359.82 C 1701.18 1312.94 1652.09 1273.98 1592.7 1247.55 C 1571.53 1238.13 1548.9 1229.83 1526.62 1223.44 C 1513.42 1219.66 1499.85 1217.34 1486.84 1212.92 C 1484.77 1215.14 1482.61 1217.07 1481.61 1220 C 1486.21 1230.99 1507.53 1236.89 1517.88 1241.54 C 1526.19 1245.28 1534.49 1249.27 1542.43 1253.75 C 1576.04 1272.7 1604.8 1297.73 1631.2 1325.6 C 1685.05 1382.46 1729.57 1453.25 1750.62 1529.12 C 1764.22 1578.12 1766.83 1635.79 1750.51 1684.43 C 1745.48 1699.43 1738.16 1713.28 1730.43 1727.03 C 1747.93 1744.15 1763.62 1763.94 1778.69 1783.22 C 1806.71 1819.07 1832.38 1856.31 1856.77 1894.71 C 1867.25 1911.21 1876.23 1928.69 1887.27 1944.81 C 1863.84 1930.52 1834.95 1924.04 1808.21 1918.91 C 1772.17 1911.99 1735.33 1908.03 1698.59 1908.17 C 1587.97 1908.59 1479.42 1937.43 1369.32 1944.95 L 1205.47 1951.6 L 1051.72 1952.63 C 969.826 1949.19 888.759 1938.77 808.219 1923.73 L 713 1904.02 C 639.316 1885.9 567.409 1861.08 498.812 1828.63 C 480.142 1819.8 461.539 1811.14 443.551 1800.96 C 364.236 1756.06 294 1702.44 230.724 1636.72 C 184.229 1588.43 144.038 1536.62 115.187 1475.79 C 105.024 1454.36 95.6837 1432.58 89.4224 1409.65 C 71.4442 1343.82 76.6678 1280.49 92.8577 1215.03 C 98.9552 1190.37 106.018 1165.82 115.28 1142.15 C 133.369 1095.91 156.564 1051.96 179.759 1008.14 L 210.378 949.786 L 303.488 781.563 C 314.058 760.63 324.002 739.406 329.882 716.604 C 335.33 695.477 336.641 673.869 346.497 654.002 C 353.512 639.86 364.002 628.118 373.296 615.5 C 382.128 603.509 389.624 590.463 395.221 576.654 C 401.545 561.052 407.133 542.261 408.676 525.374 C 410.471 505.719 408.906 487.829 414.588 468.48 C 419.282 452.494 426.494 437.402 433.016 422.109 L 453.311 371.692 C 483.87 293.494 510.026 213.864 551.849 140.588 C 562.536 121.865 574.244 101.783 587.947 85.1685 C 593.981 77.8523 601.455 71.8446 607.408 64.4611 C 619.951 48.9021 632.507 25.0871 653.006 19.5 z"/>
<path transform="translate(0,0)" fill="rgb(249,249,248)" d="M 1093.51 1308.57 C 1085.54 1306.5 1077.1 1305.31 1069.39 1302.5 L 1070.5 1300.88 C 1074.02 1300.04 1077.52 1299.52 1081.15 1299.94 C 1086.01 1300.52 1090.67 1302.67 1093.76 1306.47 L 1093.51 1308.57 z"/>
<path transform="translate(0,0)" fill="rgb(239,239,239)" d="M 1496.46 302.5 L 1499.97 302.405 L 1499.5 303.111 C 1484.39 310.247 1469.7 315.074 1453.22 310.891 L 1448.34 309.595 L 1449 308.226 C 1464.64 308.14 1480.96 304.976 1496.46 302.5 z"/>
<path transform="translate(0,0)" fill="rgb(246,226,153)" d="M 1399.64 1154.29 C 1405.05 1153.35 1411.51 1153.88 1417.04 1153.78 L 1398.94 1163.74 C 1378.61 1176.39 1369.49 1200.42 1364.13 1222.47 L 1360.23 1202.23 C 1355.69 1207.64 1351.2 1211.53 1345.37 1215.43 C 1345.13 1213.05 1346.56 1210.01 1347.25 1207.67 C 1349.88 1198.73 1354.15 1188.74 1349.98 1179.79 L 1349.47 1178.74 C 1336.84 1164.81 1317.53 1164.54 1300.05 1165.03 C 1296.19 1165.14 1291.2 1166 1287.66 1164.5 L 1290.04 1160 C 1292.81 1156.47 1297.15 1156.42 1301.33 1156.05 C 1320.67 1154.38 1348.86 1153.93 1364.28 1166.93 L 1365.32 1167.83 C 1371.76 1164.29 1377.45 1159.72 1384.5 1157.28 C 1389.28 1155.62 1394.64 1155.06 1399.64 1154.29 z"/>
<path transform="translate(0,0)" fill="rgb(246,226,153)" d="M 1471.93 841.5 L 1475.01 840.916 L 1476.59 842 L 1475.65 851.594 C 1474.27 861.678 1471.59 873.133 1466.15 881.812 C 1460.89 890.207 1452.55 896.039 1444.81 901.946 C 1435.9 908.744 1427.06 916.267 1417.61 922.268 C 1407.38 928.768 1396.71 933.911 1386.97 941.221 L 1383.47 914.245 C 1382.69 903.646 1379.75 884.782 1387.08 876.191 C 1392.55 869.784 1401.73 865.022 1410 864.06 C 1418.51 869.169 1412.32 886.297 1418.5 892.481 L 1422 891.755 C 1430.54 884.448 1432.76 865.576 1435.18 854.929 C 1446.86 848.656 1459.11 844.755 1471.93 841.5 z"/>
<path transform="translate(0,0)" fill="rgb(246,226,153)" d="M 951.31 808.304 C 960.686 809.279 969.863 812.05 978.985 814.328 L 1017.39 823.974 L 1017.46 824.796 C 1018.51 835.916 1019.4 861.283 1028.5 868.862 C 1032.46 869.089 1034.73 869.197 1038.24 867.23 C 1044.07 860.311 1046.77 843.834 1046.38 835.118 C 1046.32 833.659 1046.12 834.407 1046.97 833.058 C 1054.12 835.758 1074.76 841.814 1078.39 848.697 L 1079.04 850.5 C 1081.14 856.094 1081.94 861.898 1082.93 867.77 C 1083.8 875.998 1086.21 891.016 1083.5 898.86 C 1074.75 904.397 1064.34 903.301 1054.5 902.091 C 1033.95 899.566 1013.43 892.257 996.289 880.571 C 970.145 862.746 957.191 838.786 951.31 808.304 z"/>
<path transform="translate(0,0)" fill="rgb(249,249,248)" d="M 1313.17 1320.5 L 1314.42 1320.54 C 1320.4 1324.21 1363.19 1345.06 1363.98 1346.9 C 1365 1349.28 1362.27 1362.55 1361.73 1365.74 C 1360.97 1370.26 1358.45 1375.76 1360.46 1380.12 L 1360.9 1381 L 1361.58 1382.78 L 1362.09 1384 L 1360.84 1385.5 C 1355.26 1386.1 1349.39 1383.06 1344.21 1381.16 C 1347.13 1383.54 1351.26 1386.15 1353.05 1389.5 L 1352.06 1392.5 C 1352.85 1394.44 1352.43 1393.87 1353.53 1395.22 C 1354.65 1396.57 1355.97 1397.81 1356.43 1399.56 C 1357.04 1401.9 1356.42 1402.52 1355.33 1404.5 L 1342.14 1403.75 L 1343.15 1405.87 C 1345.67 1410.66 1347.45 1416.13 1348.56 1421.44 L 1334.24 1415.72 C 1336.73 1418.65 1342.41 1424.08 1342.84 1427.82 C 1340.8 1427.58 1341.67 1427.79 1339.56 1427.03 L 1338 1426.45 C 1335.34 1428.62 1338.04 1432.72 1336.5 1436.05 C 1333.5 1434.4 1330.01 1430.12 1326.78 1430.5 C 1327.41 1434.64 1326.48 1438.02 1325.5 1442 L 1323.5 1443.06 C 1321.98 1439.48 1320.09 1435.64 1316.5 1433.92 L 1315.56 1443.5 L 1314.04 1443.8 L 1308.5 1430.43 C 1307.85 1436 1307.28 1444.59 1305.33 1449.62 C 1302.21 1443.46 1298.64 1436.43 1292.5 1432.73 C 1292.4 1434.97 1292.54 1436.7 1293.06 1438.88 L 1295 1438.82 C 1297.39 1440.82 1297.29 1440.71 1297.72 1443.81 C 1294.86 1443.65 1294.61 1440.33 1292.5 1439.58 C 1291.71 1439.3 1290.81 1440.11 1290 1439.89 C 1288.64 1439.51 1285.01 1435.66 1283.5 1434.65 C 1283.93 1440.89 1284.49 1443.11 1281.5 1448.76 L 1270.17 1435.5 L 1268.19 1435.33 L 1267.92 1439 C 1267.41 1440.96 1266.51 1442.05 1266.25 1444.3 C 1266.01 1446.29 1265.93 1446.88 1265 1448.75 C 1261.41 1445.32 1259.14 1435.4 1256.51 1430.45 C 1257.42 1434.83 1259.82 1442.52 1257.88 1446.5 C 1256.88 1446.24 1254.47 1445.96 1253.7 1445.43 C 1251.19 1443.74 1246.82 1435.6 1244.8 1432.73 L 1239.62 1455.74 C 1237.34 1448.3 1235.99 1441.09 1235.48 1433.32 C 1231.06 1441.33 1228.69 1451.75 1226.59 1460.61 C 1226.39 1454.68 1226.48 1448.35 1225.08 1442.57 C 1223.03 1434.15 1216.63 1423.1 1211.65 1415.95 C 1213.14 1422.25 1218.7 1441.49 1216 1447.02 C 1213.94 1444.06 1213.11 1439.01 1212.05 1435.5 C 1210.79 1440.01 1209.42 1444.47 1209.02 1449.16 C 1208.84 1451.16 1208.85 1451.8 1208 1453.69 L 1206.82 1453.04 C 1204.83 1448.26 1205.03 1443.29 1204.81 1438.2 C 1204.4 1428.91 1204.77 1418.64 1203.23 1409.5 L 1201.93 1409.5 C 1205.28 1417.92 1198.4 1438.55 1196.26 1447.49 C 1193.98 1444.63 1193.14 1436.74 1191.95 1433 L 1185.16 1412.59 C 1185.28 1418.01 1185.62 1423.31 1184.1 1428.57 L 1183.81 1429.5 L 1182.66 1431.66 C 1182.13 1428.25 1181.96 1423.82 1180 1420.95 L 1178.65 1421.79 L 1176.82 1432.63 C 1174.14 1428.96 1176.12 1422.43 1174.85 1417.88 C 1174.11 1415.21 1173.04 1415.63 1171.5 1413.65 C 1170.69 1412.61 1170.07 1409.69 1169.58 1408.35 L 1168.7 1412 L 1169.34 1413.09 C 1171.91 1419.22 1168.41 1427.56 1166.4 1433.43 L 1165.19 1413.12 C 1162.93 1419.72 1161.23 1426.08 1159.95 1432.93 C 1158.29 1426.78 1155.14 1417.44 1156.91 1411.27 C 1157.43 1409.47 1157.19 1410.6 1157.58 1408.51 L 1158.32 1404.47 L 1157.72 1405.21 L 1149.4 1423.02 C 1147.62 1415.15 1147.81 1406.92 1147.65 1398.88 L 1138.37 1418.24 C 1138.73 1412.7 1138.87 1407.21 1140.68 1401.92 L 1141.02 1401 L 1140.5 1400.03 C 1136.51 1403.36 1133.45 1409.94 1130.02 1414.08 L 1138.28 1385.82 L 1123.04 1407.2 L 1128.7 1384.81 L 1115.68 1398.99 C 1117.29 1390.7 1120.27 1383.29 1123.74 1375.62 C 1119.04 1378.76 1114.83 1384.48 1112.14 1389.39 L 1111.56 1390.5 L 1110.4 1389.9 C 1110.8 1383.69 1112.42 1381.35 1116.1 1376.5 L 1114.5 1376.16 C 1111.41 1378.39 1108.35 1380.16 1104.93 1381.83 L 1121.48 1364.62 C 1111.39 1370.22 1101.86 1373.8 1091 1377.58 C 1091.52 1375.46 1104.22 1366.48 1106.57 1364.57 C 1103.83 1363.39 1101.85 1362.35 1099.52 1360.5 C 1101.97 1356.72 1119.05 1354.13 1124.06 1353.05 L 1081.52 1343.88 C 1091.74 1341.95 1100.52 1341.59 1110.88 1343.23 C 1124.25 1345.35 1136.46 1349.99 1150.19 1350.66 C 1180.04 1352.12 1205.11 1338.62 1233.81 1333.54 C 1255.61 1329.68 1277.15 1333.35 1299 1327.01 C 1304.17 1325.52 1309.11 1324.19 1313.17 1320.5 z"/>
<path transform="translate(0,0)" fill="rgb(249,249,248)" d="M 1461.16 1269.5 L 1463.49 1269.04 C 1492.66 1291.37 1520.36 1324.28 1539.52 1355.46 C 1567.99 1401.78 1585.72 1452.54 1579.71 1507.5 C 1577.46 1528.14 1572.25 1548.12 1567.45 1568.26 L 1530.89 1532.6 L 1432.83 1447.36 C 1414.41 1431.92 1391.57 1417.62 1375.91 1399.62 C 1390.29 1377.17 1413.16 1361.63 1427.24 1338.74 C 1431.97 1331.04 1435.88 1323.51 1437.39 1314.5 C 1438.27 1309.21 1438.5 1303.33 1440.4 1298.31 C 1444.14 1288.43 1454.12 1277.41 1461.16 1269.5 z"/>
<path transform="translate(0,0)" fill="rgb(249,249,248)" d="M 1478.22 1243.5 C 1484.47 1242.43 1493.44 1246.74 1499.28 1249.17 C 1550.2 1270.4 1591.26 1311.19 1624.8 1354.05 C 1658.72 1397.42 1686.76 1444.76 1707.52 1495.81 C 1728.58 1547.59 1742.28 1601.46 1729.87 1657.24 C 1726.7 1671.45 1721.53 1684.83 1715.87 1698.21 L 1692.25 1673.19 L 1593.08 1576.42 L 1573.76 1616.75 C 1580.42 1594.47 1589.26 1572.32 1594.85 1549.83 C 1602.42 1519.38 1604.35 1485 1600.22 1453.9 C 1593.84 1405.97 1571.11 1362.77 1542.64 1324.47 C 1522.75 1297.71 1498.9 1272.28 1472.48 1251.92 C 1474.17 1248.72 1475.79 1246.2 1478.22 1243.5 z"/>
<path transform="translate(0,0)" fill="rgb(249,249,248)" d="M 1510.06 836.404 C 1510.12 854.328 1511.24 871.395 1515.63 888.858 L 1529.82 936.578 C 1536.59 963.719 1538.6 997.146 1526.38 1023.09 C 1520.87 1034.79 1513.02 1045.16 1505.47 1055.58 C 1493.95 1071.48 1482.13 1086.95 1471.95 1103.77 C 1465.86 1091.09 1460.34 1080.88 1449.98 1071.13 C 1453.97 1083.43 1476.04 1171.41 1473.71 1177 C 1473.66 1177.13 1471.31 1179.92 1471.22 1180.09 C 1470.89 1180.74 1471.12 1183.62 1471.09 1184.5 L 1472.06 1185.22 L 1473.5 1186.33 L 1476.32 1188.53 C 1478.52 1190.66 1482.26 1200.55 1481.81 1203.75 C 1481.76 1204.07 1479.19 1206.8 1478.91 1207.14 C 1474.95 1211.79 1469.15 1216.75 1469 1223 C 1470.98 1226.68 1480.56 1231.49 1484.46 1234.78 C 1480.76 1235.85 1473.68 1237.05 1470.89 1239.59 C 1462.99 1246.77 1465.45 1265.43 1454.58 1271.64 C 1450.11 1274.19 1444.34 1274.19 1439.5 1277.35 C 1437.19 1278.86 1434.98 1280.74 1434.31 1283.5 L 1438.5 1286.28 C 1439.93 1291.49 1430.31 1310.39 1427.81 1316.07 C 1423.22 1326.47 1403.39 1334.1 1393.11 1338.1 C 1385.54 1340.52 1378.52 1342.76 1370.5 1343 L 1369.15 1341.5 C 1372.92 1334.52 1380.76 1330.02 1385.14 1323.26 C 1385.19 1323.19 1386.47 1321.17 1386.47 1321.08 C 1386.35 1319.31 1365.67 1302.47 1362.78 1299.39 C 1357.57 1293.84 1352.21 1286.96 1350.73 1279.33 C 1349.29 1271.92 1351.34 1263.98 1354.92 1257.46 C 1359.59 1248.97 1367.49 1241.85 1373.9 1234.62 C 1382.59 1224.85 1391.31 1214.49 1398.65 1203.67 C 1404.99 1194.32 1409.66 1183.88 1415.18 1174.05 C 1421.03 1163.6 1430.36 1152.98 1432.53 1140.97 C 1436.13 1121.07 1423.44 1095.19 1416.42 1076.83 C 1406.26 1050.29 1393.02 1021.89 1387.93 993.924 L 1387.62 992.13 L 1387.06 988.854 C 1385.9 979.026 1393.44 960.367 1399.5 952.771 C 1403.38 947.913 1409.3 945.153 1414.56 942.026 L 1433.03 930.234 C 1442.65 923.757 1451.77 916.67 1460.05 908.531 C 1480.94 887.981 1491.78 859.233 1510.06 836.404 z"/>
<path transform="translate(0,0)" fill="rgb(0,0,0)" d="M 1429.48 1234.13 C 1433.7 1234.09 1436.52 1233.28 1439.97 1236 L 1439.64 1239.5 C 1436.07 1242.98 1433.21 1245.48 1428.5 1247.44 C 1424.39 1248.47 1422.06 1247.52 1418.65 1245.5 C 1418.13 1244.06 1417.66 1243.75 1418.34 1242.2 C 1420.18 1237.98 1425.58 1235.95 1429.48 1234.13 z"/>
<path transform="translate(0,0)" fill="rgb(0,0,0)" d="M 1416.81 1279.5 L 1417.25 1279.4 C 1420.21 1278.93 1422.62 1278.26 1425.04 1280.5 C 1427.3 1282.59 1428.37 1284.24 1428.5 1287.22 C 1426.1 1290.58 1423.76 1292.46 1420.36 1294.78 C 1416.59 1295.33 1413.88 1295.68 1410.5 1293.89 C 1409.43 1290.92 1408.91 1289.09 1410.08 1286 C 1411.32 1282.7 1413.85 1281.07 1416.81 1279.5 z"/>
<path transform="translate(0,0)" fill="rgb(0,0,0)" d="M 1456.39 1223.01 C 1460.08 1222.91 1462.1 1222.1 1465.02 1224.5 C 1465.45 1227.43 1465.59 1228.26 1464.19 1230.89 C 1462.04 1234.94 1457.72 1236.06 1453.61 1237.14 C 1450.61 1237.25 1446.15 1237.95 1443.41 1236.69 C 1442.07 1236.08 1442.29 1235.28 1441.96 1234 C 1445.53 1227.65 1450 1225.78 1456.39 1223.01 z"/>
<path transform="translate(0,0)" fill="rgb(0,0,0)" d="M 1446.09 1171.5 C 1448.32 1171.01 1451.16 1170.44 1453.35 1171.27 C 1455.7 1172.16 1458.4 1174.96 1459.48 1177.21 C 1460.59 1179.55 1460.67 1182.74 1459.74 1185.14 C 1459.04 1186.9 1457.13 1187.16 1455.5 1187.91 C 1451.58 1188.12 1447.68 1187.62 1444.55 1185.03 C 1441.82 1182.77 1441.32 1179.84 1441.09 1176.5 C 1442.62 1173.49 1443.32 1173.22 1446.09 1171.5 z"/>
<path transform="translate(0,0)" fill="rgb(239,239,239)" d="M 1093.76 1306.47 C 1105.07 1300.07 1114.01 1298.93 1122.81 1287.9 C 1113.89 1277.44 1105.04 1274.83 1091.6 1273.64 C 1088.09 1273.33 1084.13 1273.33 1080.89 1271.84 C 1076.47 1269.81 1073.38 1265.77 1069.81 1262.61 C 1064.7 1258.09 1056.66 1255.08 1049.92 1254.44 C 1043.86 1253.86 1036.86 1254.9 1030.77 1255.36 C 1036.68 1250.11 1041.85 1243.5 1050.38 1244.2 C 1066.85 1245.57 1080.15 1260.09 1096.53 1247.44 C 1098.88 1245.63 1101.54 1242.48 1101.84 1239.38 C 1102.22 1235.44 1098.99 1230.32 1096.14 1227.84 C 1091.11 1223.45 1085.29 1222.04 1078.72 1222.79 C 1070.99 1223.68 1062.71 1228.37 1055.28 1223.64 C 1054.05 1222.86 1053.09 1221.59 1052.17 1220.5 C 1052.57 1218.2 1052.81 1216.39 1055 1215.07 C 1058.04 1213.24 1061.62 1213.09 1063.8 1210 C 1062.56 1206.53 1060.23 1204.94 1057.01 1203.39 C 1050.37 1200.19 1040.12 1197.15 1035.9 1191 C 1035.51 1184.71 1038.68 1180.11 1042.5 1175.41 C 1052.9 1172.57 1063.29 1183.75 1073.28 1185.75 C 1077.35 1186.57 1082.54 1185.12 1086.62 1184.49 C 1094.85 1183.2 1106.36 1182.8 1111.09 1174.73 C 1112.54 1172.23 1113 1169.19 1112.15 1166.46 C 1110.94 1162.54 1108.23 1159.58 1104.5 1157.88 C 1101.19 1156.38 1097.43 1156.36 1094.05 1157.75 C 1089.11 1159.78 1086.79 1165.02 1082.54 1167.8 C 1077.1 1162.87 1070.91 1156.02 1064.29 1152.85 C 1058.53 1150.09 1050.8 1149.93 1044.51 1149.89 C 1048.07 1131.66 1054.72 1114.27 1066.94 1099.96 C 1073.64 1092.1 1081.46 1085.79 1088.71 1078.55 C 1058.84 1093.08 1026.66 1105.32 1007.31 1133.74 C 1003.64 1139.13 999.827 1145 997.773 1151.22 L 995.47 1159.42 C 980.657 1154.5 965.343 1155.11 949.888 1155.04 L 898.538 1155.22 C 821.675 1155.79 744.445 1154.23 668.972 1171.29 C 623.178 1181.64 577.265 1200.06 535.313 1221.09 C 509.139 1234.2 483.478 1248.37 460.056 1266.04 C 461.648 1260.11 466.011 1254.81 469.771 1250.07 C 480.131 1237.03 491.833 1225.7 506.342 1217.34 C 535.071 1200.8 567.582 1189.18 598.263 1176.69 L 641.77 1158.5 C 650.502 1154.47 661.008 1149.46 667.846 1142.6 C 679.158 1131.25 684.617 1113.75 694.662 1100.93 C 697.536 1097.27 700.534 1093.82 704.165 1090.87 C 706.758 1088.77 711.185 1086.32 713.077 1083.69 C 700.775 1087.95 689.25 1092.26 677.965 1098.85 C 658.378 1110.29 640.81 1125.7 621.926 1138.36 C 603.976 1150.41 585.223 1160.26 565.83 1169.74 C 547.49 1178.71 528.19 1186.58 508.735 1192.79 C 482.989 1201.01 458.776 1205.1 435.718 1220.4 C 409.725 1237.65 386.908 1262.07 373.293 1290.3 C 360.935 1315.91 359.6 1339.77 357.848 1367.59 C 359.906 1361.94 361.788 1355.74 365.029 1350.64 C 370.861 1341.47 379.112 1333.44 386.84 1325.88 C 423.741 1289.76 471.307 1262.81 518.012 1241.08 C 571.384 1216.23 627.989 1193.1 685.301 1179.12 C 713.658 1172.2 743.027 1167.8 772.062 1164.98 C 815.392 1160.79 859.25 1160.73 902.744 1160.09 L 970.769 1159.63 C 978.526 1159.82 987.487 1159.33 994.989 1161.21 C 990.874 1177.24 988.162 1193.63 985.41 1209.95 C 978.764 1249.35 973.276 1289.08 994.621 1325.49 C 1006.8 1346.27 1026.72 1359.27 1044.91 1374.27 L 1091.19 1413.31 C 1119.56 1435.1 1153.55 1452.88 1188.31 1461.53 C 1211.58 1467.32 1235.04 1465.86 1258.71 1464.25 C 1271.26 1463.39 1283.79 1462.89 1296.08 1459.97 C 1302.59 1473.14 1305.34 1487.23 1309.05 1501.35 L 1322.64 1550.8 L 1350.31 1652.34 L 1368.94 1723.65 C 1381.48 1764.71 1397.62 1804.5 1413.6 1844.32 L 1438.59 1900.47 C 1443.31 1910.08 1447.95 1920.43 1454 1929.24 L 1406.69 1933.39 C 1373.96 1878.19 1347.51 1814.41 1301.2 1768.8 C 1283.29 1751.16 1261.17 1740.47 1243.02 1723.37 L 1358.82 1919.09 C 1261.09 1912.83 1163.22 1890.53 1071.42 1856.94 L 1026.73 1840.56 C 981.887 1822.33 937.255 1800.27 895.246 1776.2 C 833.047 1740.55 776.057 1697.94 722.206 1650.82 L 675.191 1608.51 L 627.699 1559.11 L 597.666 1527.27 L 567.742 1492.09 C 557.466 1480.04 546.969 1468.21 538.88 1454.55 C 548.142 1430.01 563.256 1417.12 582.993 1400.94 C 561.551 1409.87 537.949 1418.14 518.787 1431.35 C 506.057 1440.12 495.005 1451.26 484.185 1462.22 C 451.627 1495.2 424.894 1533.58 401.835 1573.63 C 388.19 1597.32 375.64 1621.3 365.227 1646.61 C 363.128 1651.71 361.339 1657.93 358.282 1662.5 L 359.217 1657.92 C 361.852 1644.35 368.406 1630.1 373.836 1617.43 C 390.804 1577.85 413.035 1539.89 438.523 1505.18 L 490.854 1440.68 C 504.807 1424.05 518.108 1407.12 533.62 1391.86 C 552.455 1373.34 573.048 1357.04 595.026 1342.41 C 668.049 1293.79 749.435 1256.82 835 1237 C 854.666 1232.44 874.837 1228.82 894.875 1226.34 L 946.866 1220.93 C 952.437 1220.39 962.277 1220.51 967.319 1218.44 C 968.231 1218.07 968.805 1217.15 969.548 1216.5 L 968.99 1214.5 C 962.288 1213.63 954.767 1215.06 948 1215.64 L 910.698 1219.16 C 877.518 1222.81 844.69 1228.05 812.362 1236.47 C 767.241 1248.21 723.001 1265.69 680.937 1285.67 C 636.99 1306.54 594.147 1331.56 555.594 1361.27 L 515.938 1393.58 C 506.85 1401.28 497.479 1410.65 487.017 1416.35 L 442.422 1396.5 C 465.413 1372.16 493.849 1352.72 522.453 1335.5 C 541.308 1324.16 560.214 1312.99 580.001 1303.33 C 608.199 1289.55 637.881 1278.17 667.4 1267.57 L 708.535 1253.8 C 717.638 1251.01 728.73 1248.99 737.032 1244.5 L 736.5 1243.35 C 652.388 1262.31 571.092 1292.45 499.554 1341.23 L 470.318 1362.8 C 463.519 1368.22 453.701 1378.3 445.945 1381.46 C 441.091 1383.44 434.043 1382.76 429.096 1381.74 C 427.589 1379.44 427.884 1377.87 428.5 1375.21 C 430.195 1367.88 434.256 1360.56 438.312 1354.29 C 455.095 1328.33 484.443 1308.96 510.844 1293.93 C 555.366 1268.6 603.535 1249.09 652.024 1232.81 C 674.816 1225.16 697.881 1217.53 721.365 1212.33 C 760.445 1203.67 800.279 1198.86 840.192 1196.26 L 906.963 1194.03 C 922.442 1193.93 938.16 1194.45 953.6 1193.43 C 944.704 1191.25 934.242 1192.02 925.087 1191.85 L 872.5 1191.59 C 841.008 1192.28 808.849 1193.2 777.54 1196.83 C 710.193 1204.64 645.268 1223.19 582.915 1249.59 C 552.749 1262.36 523.215 1276.27 495.185 1293.3 C 459.945 1314.7 420.499 1340.82 399.037 1376.71 C 391.833 1388.76 386.614 1403.59 383.363 1417.2 L 380.374 1433.42 C 369.138 1406.22 351.489 1381.45 334.777 1357.37 C 313.046 1326.06 289.964 1292.36 276.407 1256.56 C 269.673 1238.78 265.566 1220.64 261.452 1202.13 C 259.285 1201.99 255.732 1204.95 254.144 1206.43 C 242.709 1217.04 241.454 1238.96 235.812 1252.96 L 263.31 1108.84 L 250.308 1133.87 C 243.781 1145.67 236.035 1156.8 230.224 1169 C 212.602 1205.98 209.469 1247.39 207.691 1287.7 C 204.296 1274.51 204.85 1259.1 204.452 1245.53 C 202.846 1190.87 206.017 1132.01 234.696 1083.86 C 242.272 1071.14 251.742 1060.43 261.771 1049.66 L 215.988 1067.89 C 220.261 1042.35 227.646 1018.62 236.333 994.307 C 247.684 962.54 261.309 930.067 282.391 903.463 C 292.228 891.05 304.912 879.959 317.806 870.755 C 332.511 860.258 347.535 849.588 363.296 840.762 L 399.149 822.409 L 313.235 837.196 C 322.846 824.005 334.103 812.512 344.577 800.037 C 356.026 786.4 366.195 772.13 375.016 756.645 C 390.182 730.024 400.549 701.177 413.11 673.306 C 422.882 651.624 434.896 631.797 448.095 612.079 C 455.59 600.883 462.928 589.611 471.754 579.405 L 469.514 606.655 C 469.38 608.482 469.625 612.952 468.94 614.51 C 467.882 616.918 464.325 619.721 462.44 621.644 C 457.252 626.936 451.78 632.156 447.335 638.101 C 437.577 651.156 430.627 665.526 423.604 680.14 L 466.664 632.191 C 460.682 666.373 455.709 701.195 445.457 734.431 C 436.588 763.183 424.936 791.765 413.846 819.754 C 403.695 845.376 360.578 934.612 377.312 957.5 C 378.314 958.87 378.411 958.88 379.5 959.889 C 385.282 957.551 393.802 941.868 397.928 936.181 C 408.052 922.228 422.283 910.322 435.833 899.778 C 455.597 884.399 479.487 870.013 502.071 859.322 C 511.443 854.886 522.198 852.164 531.054 846.908 C 544.901 838.689 554.787 825.33 568.204 816.226 C 573.663 812.522 579.233 809.199 585.015 806.026 C 588.675 804.017 593.492 801.948 596.346 798.9 C 582.241 803.097 569.4 808.179 556.138 814.573 C 537.782 823.423 518.712 834.087 498.832 839.024 C 530.564 775.459 597.901 746.49 661.7 725.164 L 665.347 723.955 L 588.598 730.71 C 624.488 697.218 669.456 677.055 714.391 658.815 L 795.666 627.772 L 834.641 613.968 C 844.787 610.246 855.867 606.184 864.888 600.142 C 885.398 586.404 895.802 563.14 913.926 546.63 C 924.898 536.635 937.979 529.458 949.371 520.062 C 959.421 511.774 966.738 502.736 973.611 491.753 C 951.016 508.558 920.723 514.334 903.241 537.227 C 893.307 550.236 889.175 567.082 879.243 579.5 L 878.47 580.48 C 876.324 582.998 873.594 583.838 870.456 584.498 C 858.283 587.058 845.355 587.975 833 589.679 C 803.613 593.734 774.108 598.613 745.88 607.951 C 728.981 613.542 712.608 621.171 696.472 628.658 C 597.715 674.486 509.037 748.943 446.887 838.442 C 432.989 858.456 423.913 881.059 411.435 901.845 C 426.656 855.03 451.817 813.612 472.926 769.536 C 488.097 737.858 501.495 702.083 508.092 667.531 C 516.921 621.284 506.072 574.236 512.697 528.143 C 515.753 506.886 528.32 489.087 531.682 468.406 C 533.965 454.367 530.432 439.94 524.16 427.393 C 519.572 418.214 513.42 409.536 511.386 399.306 C 507.67 380.607 511.693 359.521 515.029 341.032 C 520.946 308.242 528.888 275.368 539.174 243.688 C 551.728 205.021 568.973 168.016 595.719 136.958 C 607.308 123.502 620.583 111.197 636.46 103 C 648.872 96.5921 665.103 92.0255 678.794 96.5653 C 690.213 100.352 699.175 109.431 706.595 118.569 C 718.867 133.683 728.854 151.324 739.095 167.855 L 773.563 218.356 L 802.348 254.5 L 862.941 333.692 L 903.491 384.16 L 935.875 423.912 L 965.384 466.882 C 962.739 447.427 963.122 425.824 954.691 407.766 C 997.356 435.128 1032.09 472.86 1058.61 516.033 C 1063.55 524.07 1067.79 532.385 1072 540.813 C 1074.34 545.484 1076.43 550.968 1079.69 555.004 L 1079.56 553.966 C 1078.46 544.962 1078.36 535.857 1077.65 526.817 C 1074.68 489.076 1070.48 453.588 1048.85 421.442 C 1046.88 418.51 1040.52 410.718 1041.93 407.828 C 1048.05 405.859 1054.13 408.719 1059.57 411.5 C 1086.23 425.149 1108.56 449.717 1128.05 472.047 C 1140.76 486.625 1154.04 501.099 1165.47 516.719 C 1184.94 543.325 1201.29 571.552 1216.98 600.494 C 1248.15 657.996 1273.95 718.521 1293.62 780.927 L 1313.13 862.587 C 1316.91 827.899 1316.09 794.59 1314.13 759.86 C 1312.43 729.614 1310.11 698.576 1301.04 669.495 C 1295.83 652.801 1287.21 637.68 1279.1 622.286 L 1236.05 549 C 1221.57 525.951 1206.35 502.256 1189.29 481.022 C 1178.03 467.019 1165.39 455.906 1151.5 444.646 C 1182.03 457.192 1205.67 482.544 1225.97 507.777 C 1224.87 501.89 1223.9 496.015 1221.3 490.572 C 1211.27 469.553 1193.72 451.327 1178.1 434.311 C 1164.96 419.991 1151.24 404.455 1135.1 393.465 L 1125.9 387.418 C 1134.98 388.692 1144.82 389.336 1153.62 391.902 C 1167.21 395.867 1179.82 402.55 1192.1 409.488 C 1213.49 421.566 1234.01 435.34 1250.29 453.96 L 1276.38 486.962 C 1283.74 495.775 1292.24 503.99 1300.87 511.564 C 1333.2 539.937 1370.84 560.359 1396.95 595.282 C 1406.94 608.642 1415.59 622.936 1424.86 636.79 C 1438.26 656.807 1452.82 676.904 1463.47 698.546 C 1475.59 723.175 1483.89 749.743 1496.52 774.215 C 1502.08 784.989 1509.59 795.581 1516.85 805.298 C 1480.03 812.629 1446.95 826.767 1415.87 847.874 C 1405.66 854.807 1396.63 863.975 1385.78 869.822 C 1387.07 853.528 1393.48 834.258 1391.72 818.121 L 1390 817.224 C 1385.8 821.289 1383.44 829.13 1381.61 834.58 C 1372.79 860.952 1368.58 889.743 1368.15 917.5 C 1367.9 933.914 1368.27 952.217 1371.86 968.218 C 1376.91 990.735 1384.85 1013.77 1392.38 1035.64 C 1399.72 1056.99 1407.63 1077.95 1413.6 1099.76 C 1417.38 1113.62 1421.6 1128.13 1418.99 1142.56 C 1403.04 1143.78 1386.76 1146.19 1370.82 1146.77 C 1354.69 1147.36 1338.22 1145.46 1322 1145.66 C 1310.5 1145.8 1295.95 1147.95 1284.95 1145.5 C 1280.37 1141.44 1279.44 1135.54 1279.13 1129.65 C 1278.33 1114.67 1279.56 1099.57 1278.34 1084.6 C 1276.19 1058.19 1262.06 1037.85 1243.88 1019.5 L 1227.99 1003.79 C 1225.98 1001.82 1222.96 999.585 1221.75 997.042 C 1231.55 986.438 1237.71 975.381 1237.14 960.5 C 1236.84 952.483 1233.4 944.936 1229.93 937.828 C 1219.87 917.23 1199.52 894.136 1200.4 870.349 C 1201.21 848.597 1221.65 828.071 1231.13 809.347 C 1243.02 785.863 1246.27 762.815 1247.73 736.883 C 1248.33 726.173 1249.18 715.526 1248.19 704.813 C 1246.1 711.436 1245.5 718.443 1243.4 725.175 C 1236.05 748.739 1221.43 773.03 1202.28 788.822 C 1197.47 709.378 1195.71 628.093 1158.93 555.56 C 1152.58 543.035 1145.52 529.26 1135.74 519.038 C 1159.39 578.878 1173.83 641.267 1177.5 705.642 C 1179.75 745.191 1178 784.712 1175.86 824.22 C 1170.88 821.958 1166.26 817.026 1161.24 814.202 L 1121.49 794.296 C 1119.52 782.648 1117.63 770.924 1113.88 759.689 C 1109.27 745.92 1102.6 732.852 1096.31 719.808 C 1078.25 682.389 1058.73 645.111 1034.58 611.215 C 1043.5 637.148 1048.35 664.109 1058.59 689.656 C 1063.31 701.451 1068.72 712.73 1074.61 723.977 C 1079.72 733.707 1086.11 743.73 1088.98 754.383 C 1057.85 757.54 1028.32 750.926 999.93 738.5 C 986.677 732.701 972.913 725.975 958.5 723.899 L 956.779 723.642 C 925.566 719.357 893.138 734.266 862.683 739.967 C 895.219 748.409 926.474 740.247 959.146 743.419 C 980.68 745.51 999.932 755.232 1020 762.508 C 1040.79 770.047 1062.85 775.165 1083.08 783.937 C 1094.53 788.897 1104.09 796.484 1113.98 803.933 C 1132.93 818.2 1151.27 832.887 1163.59 853.586 C 1171.08 866.161 1176.34 879.437 1181.61 893.024 C 1191.32 918.058 1201.35 946.729 1199.41 973.974 L 1170.89 941.432 C 1159.17 928.069 1146.46 914.779 1136.87 899.772 C 1126.61 883.71 1120.28 865.281 1108.71 850.038 C 1076.88 808.066 1021.63 800.868 973.318 793.664 C 934.572 787.887 895.685 784.347 856.507 783.347 C 837.204 782.854 818.846 784.777 800.304 790.062 C 813.528 795.312 827.041 800.899 840.887 804.252 C 856.488 808.03 872.066 808.986 888 810.11 C 898.443 810.847 908.931 812.056 919.4 812.236 L 919.902 813.648 C 923.899 824.734 930.91 834.867 938.196 844.047 C 957.662 868.568 984.675 891.027 1013.07 904.273 C 1027.62 911.061 1043.27 916.633 1059 919.937 C 1070.2 922.29 1084.39 921.893 1094.61 926.896 C 1101.14 930.091 1108.59 934.742 1112.76 940.817 C 1118.75 949.556 1121.51 958.391 1128.99 966.457 C 1138.36 976.544 1149.97 984.02 1160.4 992.906 C 1173.77 1004.3 1184.07 1017.84 1189.94 1034.5 L 1192.06 1042 C 1194.38 1051.79 1194.37 1061.83 1194.05 1071.84 C 1193.73 1081.84 1192.42 1092.28 1193.33 1102.22 C 1195.6 1127.02 1216.99 1139.53 1234.98 1153.28 C 1247.7 1162.99 1259.24 1176.12 1272.82 1184.32 C 1279.74 1188.5 1286.96 1192.18 1293.48 1196.98 C 1309.44 1208.74 1324.08 1227.25 1328.78 1246.74 C 1330.58 1254.23 1329.48 1259.48 1325.38 1266.04 C 1316.36 1280.47 1301.81 1290.66 1287.34 1299.01 C 1268.65 1309.79 1249.2 1318.3 1228 1322.83 C 1211.53 1326.35 1194.27 1327.69 1177.47 1328.73 C 1163.8 1329.57 1149.78 1330.49 1136.23 1327.9 C 1121.98 1325.18 1107.52 1318.58 1095.56 1310.46 C 1093.93 1309.35 1094.49 1309.91 1093.51 1308.57 L 1093.76 1306.47 z"/>
<path transform="translate(0,0)" fill="rgb(0,0,0)" d="M 846.865 420.5 C 853.686 420.561 868.15 423.201 874.269 425.965 L 871.5 427.286 L 867.5 428.146 L 863.881 428.794 C 857.804 429.351 851.089 426.845 846.5 422.984 L 846.865 420.5 z"/>
<path transform="translate(0,0)" fill="rgb(0,0,0)" d="M 1247.44 1236.5 C 1249.59 1236.02 1252.4 1235.91 1254.5 1236.73 C 1257.01 1237.71 1257.97 1239.18 1259.03 1241.5 C 1257.18 1244.39 1254.93 1244.59 1251.78 1245.8 C 1247.66 1246.02 1244.08 1246.66 1240.5 1244.18 L 1240.07 1241.5 C 1242.42 1238.46 1243.78 1237.6 1247.44 1236.5 z"/>
<path transform="translate(0,0)" fill="rgb(0,0,0)" d="M 1184.2 1280.26 C 1188.44 1280.48 1191.17 1280.7 1194.5 1283.37 L 1193.76 1285.81 C 1190.37 1289.49 1187.57 1290.43 1182.78 1291.62 L 1181.85 1291.56 C 1179.08 1291.39 1176.3 1291.51 1173.88 1289.96 C 1172.06 1288.78 1172.48 1288.9 1172.07 1287 C 1175.28 1282.92 1179.3 1281.42 1184.2 1280.26 z"/>
<path transform="translate(0,0)" fill="rgb(0,0,0)" d="M 1183.17 1175.5 C 1184.13 1175.31 1185.01 1175.09 1186.01 1175.12 C 1188.42 1175.2 1190.52 1176.12 1192.16 1177.87 C 1193.93 1179.75 1194.53 1181.99 1194.56 1184.5 C 1192.81 1187.21 1191.28 1188.06 1188.5 1189.43 C 1187.39 1189.69 1186.15 1190.04 1185 1190.02 C 1182.14 1189.99 1180.12 1188.19 1178.05 1186.5 C 1177.13 1184.16 1176.38 1182.26 1177.67 1179.81 C 1178.96 1177.36 1180.72 1176.5 1183.17 1175.5 z"/>
<path transform="translate(0,0)" fill="rgb(0,0,0)" d="M 1211.13 1239.17 L 1215.83 1238.95 C 1220.21 1238.91 1222.3 1240.53 1225.32 1243.5 C 1226.27 1246.12 1226.25 1245.94 1225.12 1248.5 C 1222.01 1250.99 1219.6 1251.74 1215.75 1252.64 C 1211.14 1252.38 1206.22 1252.67 1202.75 1249.14 C 1201.09 1247.46 1201.5 1247.71 1201.5 1245.59 C 1204.27 1242.4 1207.4 1241 1211.13 1239.17 z"/>
<path transform="translate(0,0)" fill="rgb(0,0,0)" d="M 1169.36 1238.5 C 1172.11 1237.86 1176.09 1237.57 1178.8 1238.46 C 1182.71 1239.75 1186.23 1243.29 1187.82 1247 C 1185.73 1249.61 1183.64 1250.5 1180.69 1251.82 L 1176.58 1252.57 C 1172.97 1253.06 1167.92 1252.41 1164.97 1250.1 C 1162.59 1248.24 1162.52 1248.01 1162.13 1245 C 1164.18 1241.62 1165.8 1240.22 1169.36 1238.5 z"/>
<path transform="translate(0,0)" fill="rgb(0,0,0)" d="M 1145.29 1279.5 L 1147.87 1279.04 C 1153.24 1278.48 1159.44 1281.07 1163.39 1284.55 C 1165.31 1286.24 1165.43 1285.84 1165.58 1288.5 C 1163.08 1290.7 1160.77 1291.94 1157.76 1293.32 C 1154.16 1293.93 1149.95 1294.44 1146.37 1293.66 C 1142.22 1292.76 1139.79 1291.2 1137.5 1287.75 C 1137.61 1286.75 1137.64 1285.96 1138.07 1285 C 1139.42 1282.03 1142.52 1280.79 1145.29 1279.5 z"/>
<path transform="translate(0,0)" fill="rgb(0,0,0)" d="M 1141.19 1172.1 C 1143.07 1172.24 1145.74 1172.23 1147.5 1172.95 C 1149.94 1173.95 1152.44 1176.25 1153.36 1178.81 C 1154.37 1181.62 1153.94 1183.29 1152.94 1186 C 1150.49 1188.79 1148.57 1189.77 1145.13 1191.11 L 1144.06 1191.09 C 1139.12 1190.94 1135.81 1190.4 1132.37 1186.7 C 1131.87 1183.82 1131.46 1180.73 1132.86 1178 C 1134.65 1174.51 1137.75 1173.53 1141.19 1172.1 z"/>
<path transform="translate(0,0)" fill="rgb(0,0,0)" d="M 739.385 1527.5 C 739.182 1532.88 738.234 1538.18 738.096 1543.58 C 737.7 1559.02 738.57 1573.89 740.4 1589.21 C 741.992 1602.54 746.673 1617.51 746.311 1630.73 L 743.273 1624.58 C 733.306 1602.85 733.052 1576.51 735.063 1553.17 C 735.781 1544.83 736.479 1535.37 739.385 1527.5 z"/>
<path transform="translate(0,0)" fill="rgb(0,0,0)" d="M 1022.81 1590.85 L 1022.33 1589.92 C 1012.25 1571.34 994.79 1553.91 979.536 1539.5 L 981 1539.1 C 995.489 1549.52 1008.57 1561.13 1019.73 1575.13 C 1024.48 1581.08 1028.19 1587.68 1032.55 1593.9 C 1033.97 1598.62 1036.56 1603.09 1038.5 1607.63 C 1042.57 1617.13 1046.56 1627.78 1048.74 1637.87 L 1031.74 1604.53 C 1029.35 1600.32 1026.84 1595.23 1023.6 1591.62 L 1022.81 1590.85 z"/>
<path transform="translate(0,0)" fill="rgb(0,0,0)" d="M 852.897 1500.16 L 851.594 1497.5 L 852.845 1497.14 C 859.351 1503.85 864.605 1512.06 869.408 1520.06 C 884.624 1548.99 893.885 1578.06 899.691 1610.23 L 899.5 1613.86 C 894.72 1605.74 892.705 1594.04 889.463 1585.01 C 889.628 1582.62 887.149 1577.06 886.383 1574.62 C 878.582 1549.77 867.811 1521.72 852.897 1500.16 z"/>
<path transform="translate(0,0)" fill="rgb(0,0,0)" d="M 927.415 1648.5 C 929.381 1650.18 936.022 1678.19 937.54 1683.09 L 951.676 1724.48 C 956.941 1741.05 961.11 1757.59 967.812 1773.7 C 960.852 1766.86 955.67 1756.63 951.5 1747.84 C 937.19 1717.67 929.096 1681.79 927.415 1648.5 z"/>
<path transform="translate(0,0)" fill="rgb(0,0,0)" d="M 1128.03 1232.33 C 1136.4 1232.78 1145.41 1233.92 1151.14 1240.88 C 1153.38 1243.61 1153.88 1245.1 1153.5 1248.48 C 1150 1253.59 1144.18 1255.64 1138.62 1257.76 C 1131.61 1258.23 1124.59 1258.74 1118.53 1254.42 C 1115.64 1252.36 1114.08 1250.52 1113.46 1246.92 C 1112.91 1243.66 1113.66 1241.18 1115.59 1238.53 C 1118.92 1233.99 1122.71 1233.23 1128.03 1232.33 z"/>
<path transform="translate(0,0)" fill="rgb(0,0,0)" d="M 1328.1 717.5 L 1328.92 717.75 C 1336.57 731.202 1342.32 746.599 1347.99 761 C 1354.67 777.996 1361.79 795.463 1364.98 813.534 C 1366.5 822.167 1366.65 831.041 1367.04 839.783 L 1328.1 717.5 z"/>
<path transform="translate(0,0)" fill="rgb(0,0,0)" d="M 847.322 448.5 L 851 447.528 C 860.568 452.258 870.314 456.252 880.695 458.824 L 881.946 459.125 L 868.978 463.314 L 867.93 463.561 C 875.468 471.375 885.552 474.951 894.644 480.593 C 903.921 486.349 911.783 493.501 919.282 501.375 C 919.79 502.217 921.018 503.946 921.205 505 C 921.674 507.648 921.088 508.653 919.804 510.779 C 918.256 510.822 917.001 511.124 915.578 510.453 C 906.135 506.003 898.515 498.121 890.843 491.211 C 884.222 485.247 876.889 479.855 870.5 473.684 C 866.913 470.22 863.887 466.249 860.359 462.739 C 856.365 458.767 849.203 453.689 847.322 448.5 z"/>
<path transform="translate(0,0)" fill="rgb(0,0,0)" d="M 848.126 1602.74 C 847.58 1641.99 832.608 1678.74 843.02 1718.22 C 843.76 1721.03 844.218 1723.55 844.5 1726.44 L 842.031 1722.39 L 835.5 1708.09 C 821.206 1672.21 833.884 1636.15 848.126 1602.74 z"/>
<path transform="translate(0,0)" fill="rgb(0,0,0)" d="M 676.8 611.5 L 680.5 611.381 C 679.84 613.011 680.403 612.31 678.587 613.276 C 657.121 624.69 637.565 638.008 618.573 653.172 L 578.943 686.5 C 577.22 687.635 578.161 687.306 576.125 687.5 C 596.468 664.017 616.347 632.073 645.889 619.359 C 655.794 615.097 666.25 613.332 676.8 611.5 z"/>
<path transform="translate(0,0)" fill="rgb(249,249,248)" d="M 924.883 1335.3 C 928.465 1334.32 932.303 1332.92 936.027 1332.82 C 913.317 1346.43 889.508 1357.95 867.234 1372.43 C 844.943 1386.93 824.947 1404.42 808.076 1425 C 802.034 1432.37 795.266 1440.09 791.112 1448.73 C 781.28 1462.42 776.307 1478.44 769.323 1493.53 L 768.416 1491.2 C 770.758 1480.5 774.329 1470.34 778.847 1460.37 C 805.718 1401.08 865.344 1357.71 924.883 1335.3 z"/>
<path transform="translate(0,0)" fill="rgb(0,0,0)" d="M 1096.4 1428.22 L 1124.03 1448.56 L 1155.38 1534.2 L 1167.91 1571.18 C 1162.51 1563.29 1158.17 1554.55 1153.65 1546.14 C 1152.12 1543.3 1150.42 1538.69 1148.28 1536.38 C 1142.09 1521.54 1133.81 1507.02 1126.88 1492.45 C 1117.58 1472.9 1109.7 1451.39 1097.5 1433.42 L 1095.79 1430.02 L 1096.4 1428.22 z"/>
<path transform="translate(0,0)" fill="rgb(0,0,0)" d="M 1297.37 594.712 C 1345.06 633.982 1361.98 695.826 1374.94 753.641 L 1297.37 594.712 z"/>
<path transform="translate(0,0)" fill="url(#Gradient1)" d="M 1124.03 1448.56 C 1143.25 1456.66 1161.93 1466.29 1181.73 1473.01 C 1189.06 1475.5 1196.69 1476.4 1204.02 1478.73 C 1198.26 1480.11 1195.28 1479.6 1191.97 1484.85 C 1190.6 1487.03 1189.7 1489.31 1188.7 1491.67 C 1188 1493.34 1188.39 1492.69 1187.25 1493.99 L 1186 1492 L 1187 1489.5 L 1185.25 1488.99 C 1185.58 1486.35 1186.05 1486.39 1187.75 1484.49 L 1185.5 1484.49 L 1185 1481.5 C 1186.48 1480.28 1187.17 1479.91 1189 1479.5 L 1190.06 1479.22 C 1192.74 1478.68 1195.77 1478.97 1198.5 1479 L 1198 1478 L 1193.5 1478.49 L 1192.5 1477.49 C 1189.62 1477.32 1189.35 1476.73 1187 1478.49 C 1181.77 1482.4 1176.41 1489.32 1170.99 1491.99 L 1170.09 1492.68 C 1168.76 1493.68 1167.48 1494.26 1165.99 1494.99 L 1164.47 1495.77 L 1158.99 1497.99 L 1157.89 1498.5 C 1156.61 1499.06 1155.42 1499.34 1154.08 1499.68 C 1152.57 1500.06 1151.39 1500.85 1150 1501.49 L 1148.75 1501.99 C 1146.78 1502.93 1146.19 1502.92 1145.49 1505 C 1146.03 1506.76 1146.16 1507.66 1147.49 1509 L 1147.5 1511 L 1148.49 1512 C 1149.33 1513.26 1148.79 1513.51 1149.24 1515 L 1150.49 1517 C 1151.08 1518.15 1151.06 1518.71 1151.49 1520 C 1151.97 1521.45 1152.01 1521.18 1152.77 1522.58 C 1153.79 1524.45 1153.49 1523.66 1153.5 1526 L 1154.49 1527 C 1155.99 1528.96 1155.52 1531.91 1155.38 1534.2 L 1124.03 1448.56 z"/>
<path transform="translate(0,0)" fill="rgb(0,0,0)" d="M 351.878 906.5 L 353.536 906.583 C 347.15 913.12 339.194 919.721 334.641 927.672 C 330.214 935.401 326.42 943.858 323.132 952.136 C 321.364 956.589 316.434 975.164 312.807 977.46 C 310.701 978.793 304.539 979.537 301.883 980.196 C 286.468 984.023 274.722 991.543 264.5 1003.65 L 263.298 1004.28 L 263.443 1002.43 C 264.387 997.239 270.486 988.708 273.132 984.007 C 278.645 974.21 284.486 964.205 291.503 955.398 C 307.879 934.845 329.169 919.331 351.878 906.5 z"/>
<path transform="translate(0,0)" fill="rgb(0,0,0)" d="M 548.448 958.5 L 548.873 959.484 L 454.13 1007.35 C 426.174 1022.91 401.839 1041.47 376.702 1061.07 L 390.048 1042.23 C 418.616 1006.92 462.654 977.833 506.5 965.419 C 520.183 961.545 534.354 960.006 548.448 958.5 z"/>
<path transform="translate(0,0)" fill="rgb(0,0,0)" d="M 1179.52 1503.58 L 1182.01 1504.79 C 1199.24 1512.7 1216.62 1524.53 1232.4 1534.98 C 1260.47 1553.57 1288.22 1577.9 1300.13 1610.29 C 1304.69 1622.68 1306.89 1635.77 1309.52 1648.67 C 1290.29 1623.77 1272.18 1597.4 1251.01 1574.09 C 1228.42 1549.21 1202.88 1527.56 1179.52 1503.58 z"/>
<path transform="translate(0,0)" fill="rgb(0,0,0)" d="M 1062.73 1494.88 L 1034.05 1458 L 1034.54 1457.46 L 1055.94 1480.25 L 1057.26 1481.47 L 1085.42 1517.36 C 1091.8 1525.7 1097.56 1534.97 1104.33 1542.92 C 1104.66 1543.32 1104.89 1543.97 1105.4 1544.04 C 1114.21 1559.1 1123.55 1573.27 1130.98 1589.14 C 1147.51 1624.44 1160.47 1663.02 1180.22 1696.62 C 1189.4 1712.25 1200.62 1726.74 1212.86 1740.09 C 1219.76 1747.61 1230.31 1755.39 1235.18 1764.23 C 1220.22 1752.08 1204.18 1739.99 1190.78 1726.12 C 1163.85 1698.24 1150.04 1662.7 1134.51 1627.93 L 1120.88 1597.93 C 1118.27 1592.27 1115.9 1586.06 1112.54 1580.81 C 1112.73 1578.4 1108.99 1571.91 1107.86 1569.5 C 1100.83 1554.52 1093.37 1538.9 1084.4 1524.99 C 1077.71 1514.63 1070.08 1504.78 1062.73 1494.88 z"/>
<path transform="translate(0,0)" fill="rgb(0,0,0)" d="M 374.32 998.5 L 376.641 998.257 C 374.07 1002.02 369.647 1004.95 366.16 1007.96 L 347.046 1025.41 C 337.265 1034.88 327.27 1044.66 318.861 1055.39 C 305.068 1072.98 295.054 1093.16 286.898 1113.89 C 282.64 1124.72 278.138 1136.8 276.426 1148.34 C 275.526 1154.4 275.657 1160.87 275.552 1167 L 274.5 1165.15 C 272.213 1144.63 266.431 1124.99 268.082 1104 C 268.63 1097.03 270.849 1089.31 272.924 1082.64 C 281.902 1053.74 303.821 1033.22 330.036 1019.37 L 374.32 998.5 z"/>
<path transform="translate(0,0)" fill="rgb(0,0,0)" d="M 769.22 875.409 C 780.233 874.874 795.021 875.129 805.5 878.457 C 800.742 881.583 793.197 883.018 787.715 884.774 L 760.031 894.88 C 717.939 912.453 685.007 944.677 654.686 977.784 L 636.47 1000.91 C 645.034 971.837 660.028 946.015 679.855 923.147 C 704.263 894.996 731.459 877.919 769.22 875.409 z"/>
<path transform="translate(0,0)" fill="rgb(0,0,0)" d="M 1360.05 615.46 C 1385.02 632.98 1398.14 663.266 1409.11 690.842 C 1415.56 707.074 1421.62 723.914 1425.86 740.885 L 1434.32 783.711 C 1452.99 777.346 1469.21 772.748 1489.11 775.384 C 1484.07 780.565 1478.67 784.23 1472.59 788.074 L 1420.69 812.448 L 1409.96 759 C 1404.45 735.43 1396.55 712.317 1389.38 689.208 C 1383.91 671.564 1379.18 652.674 1371.79 635.779 C 1368.62 628.525 1364.44 622.024 1360.05 615.46 z"/>
<path transform="translate(0,0)" fill="rgb(0,0,0)" d="M 667.129 830.345 C 689.412 828.283 715.019 830.455 736.479 836.846 C 707.344 845.158 676.48 848.452 646.908 854.978 C 626.601 859.46 606.547 865.838 587.728 874.749 C 548.515 893.317 514.263 921.016 480.363 947.636 L 438.456 979.551 C 454.976 961.807 470.019 943.102 487.373 926.064 C 535.61 878.71 599.258 839.721 667.129 830.345 z"/>
<path transform="translate(0,0)" fill="rgb(0,0,0)" d="M 1200.83 1610.73 C 1219.35 1629 1240.57 1638.17 1262.46 1651.32 C 1281.47 1662.73 1298.29 1676.8 1313.43 1692.97 C 1324.25 1704.54 1334.82 1716.46 1342.65 1730.31 C 1357.44 1756.46 1362.62 1789.2 1371.45 1817.82 C 1364.74 1808.47 1359.62 1798.01 1353.15 1788.5 C 1341.77 1771.77 1328.34 1755.9 1314.96 1740.77 L 1276.7 1701.51 C 1249.54 1673.45 1222.37 1643.37 1200.83 1610.73 z"/>
<path transform="translate(0,0)" fill="rgb(0,0,0)" d="M 457.352 1041.5 C 458.216 1041.81 457.76 1041.55 458.574 1042.5 C 447.226 1051.43 435.881 1060.71 426.943 1072.14 C 414.954 1087.48 407.794 1105.38 400.259 1123.13 L 440.083 1114.63 C 447.788 1112.6 455.339 1109.59 462.819 1106.85 C 430.26 1131.16 397.529 1157.98 371.675 1189.55 C 359.442 1204.49 349.325 1220.83 339.748 1237.54 C 329.921 1255.7 323.661 1274.23 316.224 1293.29 C 315.983 1266.87 317.624 1241.02 325.499 1215.65 C 332.459 1193.23 341.661 1171.99 352.097 1151 C 361.834 1131.42 372.15 1112.68 386.822 1096.27 C 396.985 1084.91 409.019 1075.49 420.987 1066.13 C 432.549 1057.09 444.323 1048.32 457.352 1041.5 z"/>
<path transform="translate(0,0)" fill="rgb(0,0,0)" d="M 958.104 1241.4 C 961.442 1241.1 965.349 1240.32 968.533 1241.45 C 968.703 1245.12 968.728 1247.97 967.682 1251.5 C 962.58 1253.68 955.817 1253.9 950.341 1254.8 L 914.958 1261.07 C 892.886 1265.61 871.438 1271.83 849.999 1278.69 C 833.141 1284.09 816.344 1289.61 800.233 1297 C 761.732 1314.66 725.658 1335.69 691.918 1361.35 C 666.743 1380.49 642.297 1402.8 625.19 1429.64 C 617.755 1441.31 612.548 1453.52 607.742 1466.45 C 606.991 1469.64 606.436 1472.88 605 1475.84 L 604.199 1475 C 605.485 1442.02 613.62 1410.77 634.5 1384.56 C 661.577 1350.58 698.584 1326.42 736.812 1306.76 C 805.903 1271.23 880.882 1249.75 958.104 1241.4 z"/>
<path transform="translate(0,0)" fill="rgb(0,0,0)" d="M 960.179 1265.37 C 963.158 1265.23 965.154 1264.5 967.672 1266.25 C 968.073 1269.9 968.647 1273.29 967.834 1276.91 C 960.734 1280.76 951.981 1282.96 944.256 1285.37 L 909.508 1296.67 C 873.882 1309.06 838.875 1325.85 806.779 1345.7 C 741.796 1385.88 675.09 1445.76 656.902 1522.76 C 656.613 1524.76 655.917 1526.59 655.284 1528.5 C 653.805 1517.62 654.978 1505.26 656.79 1494.5 C 661.929 1463.99 674.263 1439.15 692.884 1414.55 C 736.407 1357.05 799.953 1319.86 865.716 1293.07 C 896.14 1280.68 927.552 1269.96 960.179 1265.37 z"/>
<path transform="translate(0,0)" fill="rgb(0,0,0)" d="M 796.833 1624.15 C 793.705 1621.65 790.628 1616.77 788.295 1613.49 C 780.528 1602.56 773.765 1590.63 768.663 1578.22 C 751.732 1537.05 748.245 1484.91 765.756 1443.34 C 782.145 1404.44 808.79 1377.05 841.828 1352 C 863.248 1335.76 884.907 1322.17 909.37 1311.01 C 928.55 1302.26 948.781 1296.4 968.28 1288.52 C 969.184 1294.39 971.202 1300.39 972.773 1306.13 C 970.905 1307.74 969.915 1308.09 967.583 1308.44 C 962.81 1309.17 957.986 1312.07 953.656 1314.2 C 944.074 1318.9 934.315 1323.07 926.489 1330.5 L 924.883 1335.3 C 865.344 1357.71 805.718 1401.08 778.847 1460.37 C 774.329 1470.34 770.758 1480.5 768.416 1491.2 C 764.851 1501.54 766.387 1519.09 767.679 1529.85 C 771.671 1553.47 779.441 1574.61 787.457 1597.03 L 794.291 1615.59 C 795.195 1617.97 796.946 1621.64 796.833 1624.15 z"/>
<path transform="translate(0,0)" fill="rgb(0,0,0)" d="M 741.745 984.344 C 781.742 981.785 809.431 998.462 838.173 1024.77 C 855.358 1040.5 870.917 1054.83 893.706 1061.78 C 918.623 1069.38 941.58 1062.19 966.5 1060.3 C 979.336 1059.32 992.484 1060.53 1005.15 1062.62 C 995.383 1065.05 985.399 1067.62 976.279 1071.97 C 957.213 1081.06 940.686 1094.52 921.886 1104.2 C 912.687 1108.47 902.765 1111.85 892.87 1114.04 C 859.663 1121.41 826.274 1116.92 798.591 1096.49 C 789.222 1089.57 781.057 1080.75 773.462 1071.96 C 759.694 1056.01 746.218 1038.27 728.133 1026.92 C 715.118 1018.75 697.065 1011.58 681.537 1011.76 C 675.388 1011.83 668.787 1013.68 662.81 1015.07 C 688.013 1000.6 712.622 988.507 741.745 984.344 z"/>
<path transform="translate(0,0)" fill="rgb(0,0,0)" d="M 661.348 101.295 C 665.184 100.981 669.248 101.334 673 102.22 C 703.7 109.465 722.33 153.461 736.671 178.263 L 763.471 222.935 C 748.463 217.053 735.163 209.067 718.74 207 L 761.405 228.333 L 762.864 229.275 C 767.993 232.494 770.29 237.137 773.235 242.255 C 761.176 236.618 749.105 233.03 736.713 228.371 C 733.12 227.02 725.428 222.758 721.774 223.5 C 736.659 230.531 750.184 241.043 764.069 249.819 C 771.046 254.228 778.699 257.346 785.745 261.862 C 772.526 259.964 760.775 254.338 748.279 250.053 C 741.684 247.792 734.695 246.368 727.917 244.764 C 740.92 253.299 752.342 263.921 765.931 271.581 C 773.703 275.963 782.263 278.471 790.353 282.184 C 779.173 279.833 767.447 278.125 756.5 274.894 C 746.889 272.057 737.849 267.836 728.004 265.635 C 719.335 263.697 710.207 263.188 701.414 261.792 L 732.438 275.184 C 741.352 279.262 750.088 284.037 759.192 287.647 C 772.106 292.768 786.85 294.682 798.935 301.358 L 748.678 292.418 C 724.362 286.875 703.399 276.439 677.506 278.566 L 741.08 292.262 C 733.458 293.303 724.956 291.922 717.177 292.215 C 697.252 292.967 677.565 294.743 657.875 297.909 C 661.524 299.575 671.078 299.115 675.45 299.396 L 718.02 302.849 C 728.231 303.874 738.42 305.415 748.465 307.522 C 759.708 309.881 769.345 314.93 779.797 319.419 C 776.099 320.233 768.784 316.637 764.754 315.617 C 754.66 313.06 744.24 312.704 733.893 312 L 799.377 338.989 L 753.401 339.544 C 770.112 344.214 788.277 348.372 803.132 357.629 L 760.144 347.64 C 753.064 346.138 746.25 345.955 739.034 345.758 C 746.59 349.456 755.278 351.637 763.226 354.442 C 777.268 359.397 791.339 364.927 804.447 371.961 C 791.832 374.436 778.203 373.132 765.39 373.105 C 745.2 373.061 727.021 374.168 707.18 378.234 L 756.5 385.626 C 762.715 386.641 770.121 385.946 775.9 388.357 C 771.152 388.761 766.499 388.533 761.748 388.341 C 775.356 394.519 792.431 396.839 807.054 399.982 C 788.43 402.597 769.058 404.1 751.754 411.789 C 768.237 411.106 785.418 411.178 801.784 413.346 C 794.051 417.627 785.735 420.696 778.526 425.898 C 787.909 424.72 797.724 425.204 807.179 425.145 C 793.793 430.861 778.143 430.931 763.924 433.801 C 745.144 437.591 726.912 442.995 708.899 449.472 C 719.701 451.693 730.938 452.336 741.897 453.572 L 769.428 457.126 C 775.451 457.602 791.938 456.046 796.5 458.908 L 796 460.128 C 786.635 462.464 776.911 462.014 767.388 464.662 L 843.229 482.222 C 825.987 485.523 807.044 481.964 790.152 477.876 C 783.039 476.154 775.455 473.64 768.098 473.643 L 812.772 489.151 L 848.085 502.135 C 832.066 503.42 817.228 503.242 801.246 501.798 C 820.764 511.933 840.582 521.87 861.469 528.869 C 843.219 529.653 827.885 527.55 810.758 521.114 C 815.587 526.825 818.42 531.081 820.334 538.5 L 819.5 539.761 L 814.763 533.5 L 814.16 534.5 C 814.659 537.479 815.188 539.44 817.074 541.861 C 818.843 544.132 819.822 546.133 820.829 548.813 C 815.796 544.696 811.355 540.988 808.912 534.799 L 804.76 524.77 L 806.618 540.077 C 806.948 543.619 807.217 548.626 804.788 551.5 C 800.764 549.504 795.434 534.714 793.14 530.152 C 794.04 537.531 795.166 546.889 792.798 554 L 791.336 554.5 L 780.334 522.467 C 780.267 533.56 779.663 549.279 775.218 559.53 C 774.25 554.933 773.899 549.681 772.226 545.312 C 769.61 538.484 761.955 530.304 757.77 524.089 C 760.115 534.91 761.67 543.983 761.665 555.072 C 755.753 544.023 752.76 531.448 745.142 521.148 L 749.031 544.476 C 745.355 539.509 742.847 534.288 738.738 529.373 L 739.824 544.104 C 735.312 536.539 733.997 528.774 728.612 521.281 C 730.08 527.744 731.761 533.816 734.11 540.016 C 723.16 533.769 714.263 525.429 704.264 517.864 L 727.866 549.001 C 715.638 541.282 705.222 531.627 694.104 522.452 L 711.844 546.44 C 705.245 544.086 698.689 542.976 692.276 539.952 L 690.938 539.314 C 697.252 546.392 707.566 555.387 710.352 564.5 C 703.144 572.105 685.606 572.309 675.563 575.455 C 665.919 578.477 656.947 582.106 648.223 587.243 C 624.14 601.425 609.218 622.631 588.784 640.763 C 579.121 649.337 567.923 656.033 557.993 664.27 C 551.135 669.957 545.094 676.957 539.002 683.454 C 542.109 677.973 544.616 672.757 546.569 666.76 C 548.599 660.529 549.848 653.714 554.034 648.5 C 559.729 641.408 567.86 636.162 575.124 630.842 C 598.14 613.989 610.555 597.269 619.374 570.219 C 617.354 570.9 600.942 592.282 598.303 595.474 C 599.13 590.716 601.03 585.919 602.233 581.21 L 609.414 550.656 C 610.343 546.677 612.983 538.583 611.5 534.855 C 606.932 549.601 602.817 566.59 596.604 580.567 L 603.944 524.603 C 601.679 529.483 598.941 535.267 598.286 540.646 C 596.384 556.257 591.353 573.01 586.384 587.864 C 585.527 582.442 587.016 577.795 587.961 572.5 C 589.772 562.35 592.703 552.923 594.862 542.924 L 575.331 585.359 C 569.749 597.074 562.612 607.958 557.134 619.722 C 553.203 628.163 550.704 637.029 548.221 645.978 C 548.384 616.667 544.13 586.007 548.424 556.961 C 551.801 534.115 561.595 514.151 567.017 492.025 C 570.115 479.378 570.829 465.784 569.786 452.811 C 568.865 441.358 563.597 430.66 559.704 420.025 C 552.981 401.658 545.229 380.495 542.482 361.094 C 531.826 285.812 550.269 207.818 596.397 147.02 C 612.256 126.118 634.366 105.024 661.348 101.295 z"/>
</svg>